<?xml version="1.0" encoding="UTF-8" standalone="no"?>
<!DOCTYPE svg PUBLIC "-//W3C//DTD SVG 1.1//EN"
 "http://www.w3.org/Graphics/SVG/1.1/DTD/svg11.dtd">
<!-- Generated by graphviz version 2.43.0 (0)
 -->
<!-- Title: pastafarianism Pages: 1 -->
<svg width="903pt" height="404pt"
 viewBox="0.00 0.00 902.75 404.00" xmlns="http://www.w3.org/2000/svg" xmlns:xlink="http://www.w3.org/1999/xlink">
<g id="graph0" class="graph" transform="scale(1 1) rotate(0) translate(4 400)">
<title>pastafarianism</title>
<polygon fill="white" stroke="transparent" points="-4,4 -4,-400 898.75,-400 898.75,4 -4,4"/>
<!-- Root -->
<g id="node1" class="node">
<title>Root</title>
<polygon fill="cyan" stroke="black" points="215.68,-370.54 215.68,-385.46 196.65,-396 169.73,-396 150.7,-385.46 150.7,-370.54 169.73,-360 196.65,-360 215.68,-370.54"/>
<text text-anchor="middle" x="183.19" y="-375.8" font-family="Times,serif" font-size="9.00">Ⓜ Root</text>
</g>
<!-- At Goal Location -->
<g id="node2" class="node">
<title>At Goal Location</title>
<ellipse fill="gray" stroke="black" cx="110.19" cy="-306" rx="53.89" ry="18"/>
<text text-anchor="middle" x="110.19" y="-303.8" font-family="Times,serif" font-size="9.00">At Goal Location</text>
</g>
<!-- Root&#45;&gt;At Goal Location -->
<g id="edge1" class="edge">
<title>Root&#45;&gt;At Goal Location</title>
<path fill="none" stroke="black" d="M166.99,-361.46C157.46,-352.32 145.22,-340.59 134.54,-330.35"/>
<polygon fill="black" stroke="black" points="136.75,-327.62 127.1,-323.22 131.9,-332.67 136.75,-327.62"/>
</g>
<!-- Ensure Car At Goal -->
<g id="node3" class="node">
<title>Ensure Car At Goal</title>
<polygon fill="cyan" stroke="black" points="332.17,-298.54 332.17,-313.46 288.25,-324 226.13,-324 182.21,-313.46 182.21,-298.54 226.13,-288 288.25,-288 332.17,-298.54"/>
<text text-anchor="middle" x="257.19" y="-303.8" font-family="Times,serif" font-size="9.00">Ⓜ Ensure Car At Goal</text>
</g>
<!-- Root&#45;&gt;Ensure Car At Goal -->
<g id="edge2" class="edge">
<title>Root&#45;&gt;Ensure Car At Goal</title>
<path fill="none" stroke="black" d="M199.61,-361.46C209,-352.58 220.98,-341.25 231.58,-331.23"/>
<polygon fill="black" stroke="black" points="234.13,-333.63 238.99,-324.21 229.32,-328.54 234.13,-333.63"/>
</g>
<!-- Last Node In Route -->
<g id="node4" class="node">
<title>Last Node In Route</title>
<ellipse fill="gray" stroke="black" cx="171.19" cy="-234" rx="61.55" ry="18"/>
<text text-anchor="middle" x="171.19" y="-231.8" font-family="Times,serif" font-size="9.00">Last Node In Route</text>
</g>
<!-- Ensure Car At Goal&#45;&gt;Last Node In Route -->
<g id="edge3" class="edge">
<title>Ensure Car At Goal&#45;&gt;Last Node In Route</title>
<path fill="none" stroke="black" d="M235.93,-287.7C224.78,-278.62 210.97,-267.38 198.98,-257.62"/>
<polygon fill="black" stroke="black" points="200.99,-254.74 191.02,-251.14 196.57,-260.17 200.99,-254.74"/>
</g>
<!-- Ensure Car At Next Node -->
<g id="node5" class="node">
<title>Ensure Car At Next Node</title>
<polygon fill="cyan" stroke="black" points="437.41,-226.54 437.41,-241.46 382.8,-252 305.57,-252 250.96,-241.46 250.96,-226.54 305.57,-216 382.8,-216 437.41,-226.54"/>
<text text-anchor="middle" x="344.19" y="-231.8" font-family="Times,serif" font-size="9.00">Ⓜ Ensure Car At Next Node</text>
</g>
<!-- Ensure Car At Goal&#45;&gt;Ensure Car At Next Node -->
<g id="edge4" class="edge">
<title>Ensure Car At Goal&#45;&gt;Ensure Car At Next Node</title>
<path fill="none" stroke="black" d="M278.69,-287.7C289.65,-278.88 303.13,-268.03 315.01,-258.47"/>
<polygon fill="black" stroke="black" points="317.33,-261.1 322.93,-252.1 312.94,-255.65 317.33,-261.1"/>
</g>
<!-- Remove Node From Route -->
<g id="node6" class="node">
<title>Remove Node From Route</title>
<polygon fill="orange" stroke="black" points="264.19,-180 112.19,-180 112.19,-144 264.19,-144 264.19,-180"/>
<text text-anchor="middle" x="188.19" y="-159.8" font-family="Times,serif" font-size="9.00">Ⓜ Remove Node From Route</text>
</g>
<!-- Ensure Car At Next Node&#45;&gt;Remove Node From Route -->
<g id="edge5" class="edge">
<title>Ensure Car At Next Node&#45;&gt;Remove Node From Route</title>
<path fill="none" stroke="black" d="M306.03,-215.88C284.79,-206.35 258.18,-194.41 235.62,-184.28"/>
<polygon fill="black" stroke="black" points="236.78,-180.97 226.23,-180.07 233.92,-187.36 236.78,-180.97"/>
</g>
<!-- Make Car Go To Next Node In Route List -->
<g id="node9" class="node">
<title>Make Car Go To Next Node In Route List</title>
<polygon fill="orange" stroke="black" points="611.69,-180 390.69,-180 390.69,-144 611.69,-144 611.69,-180"/>
<text text-anchor="middle" x="501.19" y="-159.8" font-family="Times,serif" font-size="9.00">Ⓜ Make Car Go To Next Node In Route List</text>
</g>
<!-- Ensure Car At Next Node&#45;&gt;Make Car Go To Next Node In Route List -->
<g id="edge8" class="edge">
<title>Ensure Car At Next Node&#45;&gt;Make Car Go To Next Node In Route List</title>
<path fill="none" stroke="black" d="M382.59,-215.88C404.06,-206.31 430.99,-194.3 453.76,-184.15"/>
<polygon fill="black" stroke="black" points="455.2,-187.34 462.91,-180.07 452.35,-180.94 455.2,-187.34"/>
</g>
<!-- At Next Node -->
<g id="node7" class="node">
<title>At Next Node</title>
<ellipse fill="gray" stroke="black" cx="46.19" cy="-90" rx="46.38" ry="18"/>
<text text-anchor="middle" x="46.19" y="-87.8" font-family="Times,serif" font-size="9.00">At Next Node</text>
</g>
<!-- Remove Node From Route&#45;&gt;At Next Node -->
<g id="edge6" class="edge">
<title>Remove Node From Route&#45;&gt;At Next Node</title>
<path fill="none" stroke="black" d="M153.45,-143.88C132.14,-133.37 104.86,-119.92 83.15,-109.22"/>
<polygon fill="black" stroke="black" points="84.43,-105.95 73.92,-104.67 81.34,-112.23 84.43,-105.95"/>
</g>
<!-- Mark Node As Completed -->
<g id="node8" class="node">
<title>Mark Node As Completed</title>
<ellipse fill="gray" stroke="black" cx="188.19" cy="-90" rx="77.88" ry="18"/>
<text text-anchor="middle" x="188.19" y="-87.8" font-family="Times,serif" font-size="9.00">Mark Node As Completed</text>
</g>
<!-- Remove Node From Route&#45;&gt;Mark Node As Completed -->
<g id="edge7" class="edge">
<title>Remove Node From Route&#45;&gt;Mark Node As Completed</title>
<path fill="none" stroke="black" d="M188.19,-143.7C188.19,-135.98 188.19,-126.71 188.19,-118.11"/>
<polygon fill="black" stroke="black" points="191.69,-118.1 188.19,-108.1 184.69,-118.1 191.69,-118.1"/>
</g>
<!-- Ensure Car On Correct Road -->
<g id="node10" class="node">
<title>Ensure Car On Correct Road</title>
<polygon fill="cyan" stroke="black" points="488.66,-82.54 488.66,-97.46 428.63,-108 343.74,-108 283.71,-97.46 283.71,-82.54 343.74,-72 428.63,-72 488.66,-82.54"/>
<text text-anchor="middle" x="386.19" y="-87.8" font-family="Times,serif" font-size="9.00">Ⓜ Ensure Car On Correct Road</text>
</g>
<!-- Make Car Go To Next Node In Route List&#45;&gt;Ensure Car On Correct Road -->
<g id="edge9" class="edge">
<title>Make Car Go To Next Node In Route List&#45;&gt;Ensure Car On Correct Road</title>
<path fill="none" stroke="black" d="M473.06,-143.88C458.02,-134.72 439.32,-123.34 423.13,-113.48"/>
<polygon fill="black" stroke="black" points="424.79,-110.4 414.43,-108.19 421.15,-116.38 424.79,-110.4"/>
</g>
<!-- Ensure Car On Correct Lane -->
<g id="node13" class="node">
<title>Ensure Car On Correct Lane</title>
<polygon fill="cyan" stroke="black" points="711.66,-82.54 711.66,-97.46 651.63,-108 566.74,-108 506.71,-97.46 506.71,-82.54 566.74,-72 651.63,-72 711.66,-82.54"/>
<text text-anchor="middle" x="609.19" y="-87.8" font-family="Times,serif" font-size="9.00">Ⓜ Ensure Car On Correct Lane</text>
</g>
<!-- Make Car Go To Next Node In Route List&#45;&gt;Ensure Car On Correct Lane -->
<g id="edge12" class="edge">
<title>Make Car Go To Next Node In Route List&#45;&gt;Ensure Car On Correct Lane</title>
<path fill="none" stroke="black" d="M527.61,-143.88C541.6,-134.81 558.96,-123.55 574.07,-113.76"/>
<polygon fill="black" stroke="black" points="576.18,-116.57 582.67,-108.19 572.37,-110.69 576.18,-116.57"/>
</g>
<!-- Car Drive Straight At Node -->
<g id="node16" class="node">
<title>Car Drive Straight At Node</title>
<ellipse fill="gray" stroke="black" cx="812.19" cy="-90" rx="82.62" ry="18"/>
<text text-anchor="middle" x="812.19" y="-87.8" font-family="Times,serif" font-size="9.00">Car Drive Straight At Node</text>
</g>
<!-- Make Car Go To Next Node In Route List&#45;&gt;Car Drive Straight At Node -->
<g id="edge15" class="edge">
<title>Make Car Go To Next Node In Route List&#45;&gt;Car Drive Straight At Node</title>
<path fill="none" stroke="black" d="M576.87,-143.97C628.85,-132.27 697.15,-116.89 746.77,-105.72"/>
<polygon fill="black" stroke="black" points="747.76,-109.09 756.75,-103.48 746.22,-102.26 747.76,-109.09"/>
</g>
<!-- Check Car On Desired Road -->
<g id="node11" class="node">
<title>Check Car On Desired Road</title>
<ellipse fill="gray" stroke="black" cx="214.19" cy="-18" rx="84.09" ry="18"/>
<text text-anchor="middle" x="214.19" y="-15.8" font-family="Times,serif" font-size="9.00">Check Car On Desired Road</text>
</g>
<!-- Ensure Car On Correct Road&#45;&gt;Check Car On Desired Road -->
<g id="edge10" class="edge">
<title>Ensure Car On Correct Road&#45;&gt;Check Car On Desired Road</title>
<path fill="none" stroke="black" d="M344.11,-71.88C318.87,-61.6 286.72,-48.52 260.72,-37.94"/>
<polygon fill="black" stroke="black" points="262.03,-34.69 251.44,-34.16 259.39,-41.17 262.03,-34.69"/>
</g>
<!-- Make Turn To Reach Road -->
<g id="node12" class="node">
<title>Make Turn To Reach Road</title>
<ellipse fill="gray" stroke="black" cx="396.19" cy="-18" rx="79.85" ry="18"/>
<text text-anchor="middle" x="396.19" y="-15.8" font-family="Times,serif" font-size="9.00">Make Turn To Reach Road</text>
</g>
<!-- Ensure Car On Correct Road&#45;&gt;Make Turn To Reach Road -->
<g id="edge11" class="edge">
<title>Ensure Car On Correct Road&#45;&gt;Make Turn To Reach Road</title>
<path fill="none" stroke="black" d="M388.66,-71.7C389.76,-63.98 391.09,-54.71 392.31,-46.11"/>
<polygon fill="black" stroke="black" points="395.8,-46.5 393.74,-36.1 388.87,-45.51 395.8,-46.5"/>
</g>
<!-- Check Car On Correct Lane -->
<g id="node14" class="node">
<title>Check Car On Correct Lane</title>
<ellipse fill="gray" stroke="black" cx="598.19" cy="-18" rx="83.93" ry="18"/>
<text text-anchor="middle" x="598.19" y="-15.8" font-family="Times,serif" font-size="9.00">Check Car On Correct Lane</text>
</g>
<!-- Ensure Car On Correct Lane&#45;&gt;Check Car On Correct Lane -->
<g id="edge13" class="edge">
<title>Ensure Car On Correct Lane&#45;&gt;Check Car On Correct Lane</title>
<path fill="none" stroke="black" d="M606.47,-71.7C605.26,-63.98 603.8,-54.71 602.45,-46.11"/>
<polygon fill="black" stroke="black" points="605.89,-45.44 600.88,-36.1 598.97,-46.53 605.89,-45.44"/>
</g>
<!-- Swap To Node Lane -->
<g id="node15" class="node">
<title>Swap To Node Lane</title>
<ellipse fill="gray" stroke="black" cx="762.19" cy="-18" rx="62.21" ry="18"/>
<text text-anchor="middle" x="762.19" y="-15.8" font-family="Times,serif" font-size="9.00">Swap To Node Lane</text>
</g>
<!-- Ensure Car On Correct Lane&#45;&gt;Swap To Node Lane -->
<g id="edge14" class="edge">
<title>Ensure Car On Correct Lane&#45;&gt;Swap To Node Lane</title>
<path fill="none" stroke="black" d="M646.62,-71.88C669.16,-61.56 697.9,-48.41 721.08,-37.81"/>
<polygon fill="black" stroke="black" points="722.68,-40.92 730.32,-33.58 719.77,-34.56 722.68,-40.92"/>
</g>
</g>
</svg>
