<?xml version="1.0" encoding="UTF-8" standalone="no"?>
<!DOCTYPE svg PUBLIC "-//W3C//DTD SVG 1.1//EN"
 "http://www.w3.org/Graphics/SVG/1.1/DTD/svg11.dtd">
<!-- Generated by graphviz version 12.1.2 (20240928.0832)
 -->
<!-- Title: pastafarianism Pages: 1 -->
<svg width="767pt" height="404pt"
 viewBox="0.00 0.00 766.77 404.00" xmlns="http://www.w3.org/2000/svg" xmlns:xlink="http://www.w3.org/1999/xlink">
<g id="graph0" class="graph" transform="scale(1 1) rotate(0) translate(4 400)">
<title>pastafarianism</title>
<polygon fill="white" stroke="none" points="-4,4 -4,-400 762.77,-400 762.77,4 -4,4"/>
<!-- Root -->
<g id="node1" class="node">
<title>Root</title>
<polygon fill="cyan" stroke="black" points="183.64,-370.54 183.64,-385.46 166.05,-396 141.18,-396 123.59,-385.46 123.59,-370.54 141.18,-360 166.05,-360 183.64,-370.54"/>
<text text-anchor="middle" x="153.61" y="-376.2" font-family="Times,serif" font-size="9.00">Ⓜ Root</text>
</g>
<!-- At Goal Location -->
<g id="node2" class="node">
<title>At Goal Location</title>
<ellipse fill="gray" stroke="black" cx="89.61" cy="-306" rx="45.17" ry="18"/>
<text text-anchor="middle" x="89.61" y="-302.7" font-family="Times,serif" font-size="9.00">At Goal Location</text>
</g>
<!-- Root&#45;&gt;At Goal Location -->
<g id="edge1" class="edge">
<title>Root&#45;&gt;At Goal Location</title>
<path fill="none" stroke="black" d="M139.09,-361.12C131.1,-352.38 121.02,-341.35 112.05,-331.54"/>
<polygon fill="black" stroke="black" points="114.88,-329.44 105.54,-324.42 109.71,-334.17 114.88,-329.44"/>
</g>
<!-- Ensure Car At Goal -->
<g id="node3" class="node">
<title>Ensure Car At Goal</title>
<polygon fill="cyan" stroke="black" points="284.06,-298.54 284.06,-313.46 245.72,-324 191.5,-324 153.16,-313.46 153.16,-298.54 191.5,-288 245.72,-288 284.06,-298.54"/>
<text text-anchor="middle" x="218.61" y="-304.2" font-family="Times,serif" font-size="9.00">Ⓜ Ensure Car At Goal</text>
</g>
<!-- Root&#45;&gt;Ensure Car At Goal -->
<g id="edge2" class="edge">
<title>Root&#45;&gt;Ensure Car At Goal</title>
<path fill="none" stroke="black" d="M168.36,-361.12C176.16,-352.72 185.93,-342.2 194.78,-332.67"/>
<polygon fill="black" stroke="black" points="197.29,-335.11 201.53,-325.4 192.16,-330.35 197.29,-335.11"/>
</g>
<!-- Last Node In Route -->
<g id="node4" class="node">
<title>Last Node In Route</title>
<ellipse fill="gray" stroke="black" cx="144.61" cy="-234" rx="49.98" ry="18"/>
<text text-anchor="middle" x="144.61" y="-230.7" font-family="Times,serif" font-size="9.00">Last Node In Route</text>
</g>
<!-- Ensure Car At Goal&#45;&gt;Last Node In Route -->
<g id="edge3" class="edge">
<title>Ensure Car At Goal&#45;&gt;Last Node In Route</title>
<path fill="none" stroke="black" d="M200.32,-287.7C191.19,-279.05 179.98,-268.46 170.03,-259.04"/>
<polygon fill="black" stroke="black" points="172.45,-256.51 162.78,-252.18 167.64,-261.6 172.45,-256.51"/>
</g>
<!-- Ensure Car At Next Node -->
<g id="node5" class="node">
<title>Ensure Car At Next Node</title>
<polygon fill="cyan" stroke="black" points="372.74,-226.54 372.74,-241.46 325.8,-252 259.42,-252 212.49,-241.46 212.49,-226.54 259.42,-216 325.8,-216 372.74,-226.54"/>
<text text-anchor="middle" x="292.61" y="-232.2" font-family="Times,serif" font-size="9.00">Ⓜ Ensure Car At Next Node</text>
</g>
<!-- Ensure Car At Goal&#45;&gt;Ensure Car At Next Node -->
<g id="edge4" class="edge">
<title>Ensure Car At Goal&#45;&gt;Ensure Car At Next Node</title>
<path fill="none" stroke="black" d="M236.91,-287.7C245.71,-279.37 256.43,-269.22 266.11,-260.07"/>
<polygon fill="black" stroke="black" points="268.32,-262.8 273.18,-253.39 263.51,-257.72 268.32,-262.8"/>
</g>
<!-- Remove Node From Route -->
<g id="node6" class="node">
<title>Remove Node From Route</title>
<polygon fill="orange" stroke="black" points="221.24,-180 97.99,-180 97.99,-144 221.24,-144 221.24,-180"/>
<text text-anchor="middle" x="159.61" y="-160.2" font-family="Times,serif" font-size="9.00">Ⓜ Remove Node From Route</text>
</g>
<!-- Ensure Car At Next Node&#45;&gt;Remove Node From Route -->
<g id="edge5" class="edge">
<title>Ensure Car At Next Node&#45;&gt;Remove Node From Route</title>
<path fill="none" stroke="black" d="M259.4,-215.52C242.13,-206.43 220.82,-195.22 202.34,-185.49"/>
<polygon fill="black" stroke="black" points="204.23,-182.53 193.75,-180.97 200.97,-188.72 204.23,-182.53"/>
</g>
<!-- Make Car Go To Next Node In Route List -->
<g id="node9" class="node">
<title>Make Car Go To Next Node In Route List</title>
<polygon fill="orange" stroke="black" points="514.61,-180 336.61,-180 336.61,-144 514.61,-144 514.61,-180"/>
<text text-anchor="middle" x="425.61" y="-160.2" font-family="Times,serif" font-size="9.00">Ⓜ Make Car Go To Next Node In Route List</text>
</g>
<!-- Ensure Car At Next Node&#45;&gt;Make Car Go To Next Node In Route List -->
<g id="edge8" class="edge">
<title>Ensure Car At Next Node&#45;&gt;Make Car Go To Next Node In Route List</title>
<path fill="none" stroke="black" d="M325.83,-215.52C343.1,-206.43 364.4,-195.22 382.88,-185.49"/>
<polygon fill="black" stroke="black" points="384.26,-188.72 391.48,-180.97 381,-182.53 384.26,-188.72"/>
</g>
<!-- At Next Node -->
<g id="node7" class="node">
<title>At Next Node</title>
<ellipse fill="gray" stroke="black" cx="38.61" cy="-90" rx="38.61" ry="18"/>
<text text-anchor="middle" x="38.61" y="-86.7" font-family="Times,serif" font-size="9.00">At Next Node</text>
</g>
<!-- Remove Node From Route&#45;&gt;At Next Node -->
<g id="edge6" class="edge">
<title>Remove Node From Route&#45;&gt;At Next Node</title>
<path fill="none" stroke="black" d="M129.39,-143.52C111.87,-133.38 89.79,-120.61 71.79,-110.19"/>
<polygon fill="black" stroke="black" points="73.72,-107.27 63.31,-105.29 70.21,-113.32 73.72,-107.27"/>
</g>
<!-- Mark Node As Completed -->
<g id="node8" class="node">
<title>Mark Node As Completed</title>
<ellipse fill="gray" stroke="black" cx="159.61" cy="-90" rx="63.97" ry="18"/>
<text text-anchor="middle" x="159.61" y="-86.7" font-family="Times,serif" font-size="9.00">Mark Node As Completed</text>
</g>
<!-- Remove Node From Route&#45;&gt;Mark Node As Completed -->
<g id="edge7" class="edge">
<title>Remove Node From Route&#45;&gt;Mark Node As Completed</title>
<path fill="none" stroke="black" d="M159.61,-143.7C159.61,-136.41 159.61,-127.73 159.61,-119.54"/>
<polygon fill="black" stroke="black" points="163.11,-119.62 159.61,-109.62 156.11,-119.62 163.11,-119.62"/>
</g>
<!-- Ensure Car On Correct Road -->
<g id="node10" class="node">
<title>Ensure Car On Correct Road</title>
<polygon fill="cyan" stroke="black" points="417.33,-82.54 417.33,-97.46 365.95,-108 293.28,-108 241.9,-97.46 241.9,-82.54 293.28,-72 365.95,-72 417.33,-82.54"/>
<text text-anchor="middle" x="329.61" y="-88.2" font-family="Times,serif" font-size="9.00">Ⓜ Ensure Car On Correct Road</text>
</g>
<!-- Make Car Go To Next Node In Route List&#45;&gt;Ensure Car On Correct Road -->
<g id="edge9" class="edge">
<title>Make Car Go To Next Node In Route List&#45;&gt;Ensure Car On Correct Road</title>
<path fill="none" stroke="black" d="M401.88,-143.7C390,-135.03 375.42,-124.4 362.48,-114.96"/>
<polygon fill="black" stroke="black" points="364.77,-112.3 354.63,-109.24 360.64,-117.96 364.77,-112.3"/>
</g>
<!-- Ensure Car On Correct Lane -->
<g id="node13" class="node">
<title>Ensure Car On Correct Lane</title>
<polygon fill="cyan" stroke="black" points="608.32,-82.54 608.32,-97.46 557.53,-108 485.7,-108 434.91,-97.46 434.91,-82.54 485.7,-72 557.53,-72 608.32,-82.54"/>
<text text-anchor="middle" x="521.61" y="-88.2" font-family="Times,serif" font-size="9.00">Ⓜ Ensure Car On Correct Lane</text>
</g>
<!-- Make Car Go To Next Node In Route List&#45;&gt;Ensure Car On Correct Lane -->
<g id="edge12" class="edge">
<title>Make Car Go To Next Node In Route List&#45;&gt;Ensure Car On Correct Lane</title>
<path fill="none" stroke="black" d="M449.34,-143.7C461.23,-135.03 475.81,-124.4 488.75,-114.96"/>
<polygon fill="black" stroke="black" points="490.58,-117.96 496.6,-109.24 486.46,-112.3 490.58,-117.96"/>
</g>
<!-- Car Drive Straight At Node -->
<g id="node16" class="node">
<title>Car Drive Straight At Node</title>
<ellipse fill="gray" stroke="black" cx="692.61" cy="-90" rx="66.15" ry="18"/>
<text text-anchor="middle" x="692.61" y="-86.7" font-family="Times,serif" font-size="9.00">Car Drive Straight At Node</text>
</g>
<!-- Make Car Go To Next Node In Route List&#45;&gt;Car Drive Straight At Node -->
<g id="edge15" class="edge">
<title>Make Car Go To Next Node In Route List&#45;&gt;Car Drive Straight At Node</title>
<path fill="none" stroke="black" d="M492.3,-143.52C536.16,-132.02 592.99,-117.12 634.9,-106.13"/>
<polygon fill="black" stroke="black" points="635.79,-109.52 644.57,-103.6 634.01,-102.75 635.79,-109.52"/>
</g>
<!-- Check Car On Desired Road -->
<g id="node11" class="node">
<title>Check Car On Desired Road</title>
<ellipse fill="gray" stroke="black" cx="187.61" cy="-18" rx="68.78" ry="18"/>
<text text-anchor="middle" x="187.61" y="-14.7" font-family="Times,serif" font-size="9.00">Check Car On Desired Road</text>
</g>
<!-- Ensure Car On Correct Road&#45;&gt;Check Car On Desired Road -->
<g id="edge10" class="edge">
<title>Ensure Car On Correct Road&#45;&gt;Check Car On Desired Road</title>
<path fill="none" stroke="black" d="M294.15,-71.52C274.33,-61.75 249.54,-49.53 228.86,-39.33"/>
<polygon fill="black" stroke="black" points="230.64,-36.31 220.13,-35.03 227.55,-42.59 230.64,-36.31"/>
</g>
<!-- Make Turn To Reach Road -->
<g id="node12" class="node">
<title>Make Turn To Reach Road</title>
<ellipse fill="gray" stroke="black" cx="339.61" cy="-18" rx="65.72" ry="18"/>
<text text-anchor="middle" x="339.61" y="-14.7" font-family="Times,serif" font-size="9.00">Make Turn To Reach Road</text>
</g>
<!-- Ensure Car On Correct Road&#45;&gt;Make Turn To Reach Road -->
<g id="edge11" class="edge">
<title>Ensure Car On Correct Road&#45;&gt;Make Turn To Reach Road</title>
<path fill="none" stroke="black" d="M332.09,-71.7C333.14,-64.32 334.4,-55.52 335.58,-47.25"/>
<polygon fill="black" stroke="black" points="339.01,-48 336.96,-37.6 332.08,-47.01 339.01,-48"/>
</g>
<!-- Check Car On Correct Lane -->
<g id="node14" class="node">
<title>Check Car On Correct Lane</title>
<ellipse fill="gray" stroke="black" cx="510.61" cy="-18" rx="67.03" ry="18"/>
<text text-anchor="middle" x="510.61" y="-14.7" font-family="Times,serif" font-size="9.00">Check Car On Correct Lane</text>
</g>
<!-- Ensure Car On Correct Lane&#45;&gt;Check Car On Correct Lane -->
<g id="edge13" class="edge">
<title>Ensure Car On Correct Lane&#45;&gt;Check Car On Correct Lane</title>
<path fill="none" stroke="black" d="M518.89,-71.7C517.74,-64.32 516.35,-55.52 515.05,-47.25"/>
<polygon fill="black" stroke="black" points="518.55,-46.93 513.54,-37.6 511.63,-48.02 518.55,-46.93"/>
</g>
<!-- Swap To Node Lane -->
<g id="node15" class="node">
<title>Swap To Node Lane</title>
<ellipse fill="gray" stroke="black" cx="647.61" cy="-18" rx="52.16" ry="18"/>
<text text-anchor="middle" x="647.61" y="-14.7" font-family="Times,serif" font-size="9.00">Swap To Node Lane</text>
</g>
<!-- Ensure Car On Correct Lane&#45;&gt;Swap To Node Lane -->
<g id="edge14" class="edge">
<title>Ensure Car On Correct Lane&#45;&gt;Swap To Node Lane</title>
<path fill="none" stroke="black" d="M553.08,-71.52C570.59,-61.79 592.48,-49.63 610.78,-39.46"/>
<polygon fill="black" stroke="black" points="612.44,-42.55 619.48,-34.63 609.04,-36.43 612.44,-42.55"/>
</g>
</g>
</svg>
